<?xml version="1.0" encoding="iso-8859-1"?>
<svg fill="#000000" version="1.1" id="Layer_1" xmlns="http://www.w3.org/2000/svg" xmlns:xlink="http://www.w3.org/1999/xlink" 
	 viewBox="0 0 181.857 181.857" xml:space="preserve">
<g>
	<g>
		<g>
			<path d="M146.071,52.755c-1.882-25.887-24.296-46.392-51.577-46.392c-21.644,0-40.714,12.797-48.321,32.12
				c-0.531-0.019-1.064-0.028-1.6-0.028C19.995,38.455,0,58.45,0,83.028S19.995,127.6,44.573,127.6c0.467,0,0.931-0.007,1.396-0.021
				c0.127,0.014,0.256,0.021,0.387,0.021h99.843c0.258,0,0.512-0.03,0.757-0.085c19.619-1.313,34.901-17.61,34.901-37.356
				C181.856,70.068,165.951,53.624,146.071,52.755z M146.003,120.429c-0.127,0.005-0.254,0.019-0.378,0.04H46.888
				c-0.225-0.037-0.456-0.044-0.679-0.035c-0.542,0.025-1.088,0.035-1.637,0.035c-20.645,0-37.441-16.796-37.441-37.441
				c0-20.645,16.796-37.441,37.441-37.441c1.245,0,2.478,0.061,3.691,0.179c1.654,0.186,3.211-0.844,3.735-2.43
				c5.895-17.848,22.972-29.841,42.495-29.841c24.578,0,44.573,19.196,44.573,42.835c0,0.977,0.4,1.91,1.109,2.584
				c0.707,0.674,1.637,1.031,2.636,0.977c0.531-0.026,1.064-0.04,1.604-0.04c16.713,0,30.309,13.596,30.309,30.309
				C174.725,106.303,162.108,119.598,146.003,120.429z"/>
			<path d="M57.892,136.703c-1.713-0.989-3.886-0.4-4.872,1.306l-18.554,32.136c-0.984,1.706-0.4,3.886,1.306,4.872
				c0.562,0.324,1.175,0.477,1.779,0.477c1.233,0,2.43-0.639,3.092-1.783l18.553-32.136
				C60.182,139.868,59.599,137.688,57.892,136.703z"/>
			<path d="M79.287,136.703c-1.712-0.989-3.888-0.4-4.872,1.306l-18.553,32.136c-0.984,1.706-0.4,3.886,1.306,4.872
				c0.562,0.324,1.175,0.477,1.779,0.477c1.233,0,2.43-0.639,3.092-1.783l18.553-32.136
				C81.576,139.868,80.993,137.688,79.287,136.703z"/>
			<path d="M100.682,136.703c-1.715-0.989-3.888-0.4-4.872,1.306l-18.553,32.136c-0.984,1.706-0.4,3.886,1.306,4.872
				c0.562,0.324,1.175,0.477,1.779,0.477c1.233,0,2.43-0.639,3.092-1.783l18.553-32.136
				C102.971,139.868,102.388,137.688,100.682,136.703z"/>
			<path d="M128.369,159.693c-7.865,0-14.263-6.398-14.263-14.263h-7.132c0,11.798,9.597,21.395,21.395,21.395
				c11.798,0,21.395-9.597,21.395-21.395h-7.132C142.632,153.294,136.234,159.693,128.369,159.693z"/>
		</g>
	</g>
</g>
</svg>