<?xml version="1.0" encoding="iso-8859-1"?>
<svg fill="#000000"  version="1.1" id="Layer_1" xmlns="http://www.w3.org/2000/svg" xmlns:xlink="http://www.w3.org/1999/xlink" 
	 viewBox="0 0 496 496" xml:space="preserve">
<g>
	<g>
		<path d="M413.968,162.948C403.136,99.036,348.16,51.436,283.024,49.988C265.888,20.196,234.528,1.852,200,1.852
			c-40.936,0-77.176,26.096-90.528,64.28c-20.6-2.096-40.2,7.464-51.616,24.064C25.08,93.276,0,120.444,0,153.852
			c0,20.104,9.424,38.616,25.04,50.616C9.568,220.332,0,241.988,0,265.852c0,46.624,36.48,84.792,82.376,87.712l-32.168,56.288
			h47.216l-48.176,75.704l13.504,8.592l63.816-100.296H77.784l22.856-40h69.576l-32,56h47.216l-48.176,75.704l13.504,8.592
			l63.808-100.296h-48.784l22.856-40h69.576l-32,56h47.216l-48.176,75.704l13.504,8.592l63.808-100.296h-48.784l22.856-40h69.576
			l-32,56h47.216l-48.176,75.704l13.504,8.592l63.808-100.296h-48.784l22.856-40H400c52.936,0,96-43.064,96-96
			C496,210.284,460.464,169.78,413.968,162.948z M16,153.852c0-26.144,20.496-47.192,46.648-47.92l4.472-0.128l2.232-3.872
			c7.152-12.384,20.424-20.08,34.648-20.08c3.016,0,6.032,0.368,9.224,1.12l7.56,1.776l1.992-7.504
			c9.328-34.968,41.072-59.392,77.224-59.392c25.88,0,49.584,12.416,64.496,32.984c-53.496,6.096-98.6,43.224-114.44,95.288
			c-2.048-0.176-4.072-0.272-6.056-0.272c-24.032,0-46.552,12.176-59.856,32.088c-17.272,0.744-33.248,6.52-46.552,15.856
			C24.2,184.948,16,170.092,16,153.852z M400,337.852H88c-39.704,0-72-32.296-72-72c0-39.704,32.296-72,71.688-72.008l5.528,0.04
			l2.312-3.992c10.016-17.296,28.592-28.04,48.472-28.04c3.352,0,6.856,0.344,10.424,1.008l7.424,1.4l1.824-7.336
			C176.96,103.308,224.808,65.852,280,65.852c60.512,0,111.672,45.28,119.008,105.32l0.56,4.592
			c0.272,3.328,0.432,6.688,0.432,10.088c0,66.168-53.832,120-120,120v16c74.992,0,136-61.008,136-136
			c0-2.128-0.176-4.2-0.272-6.296C452.432,186.94,480,219.628,480,257.852C480,301.964,444.112,337.852,400,337.852z"/>
	</g>
</g>
</svg>