<?xml version="1.0" ?>

<svg fill="#000000" viewBox="0 0 128 128" id="Layer_1" version="1.1" xml:space="preserve" xmlns="http://www.w3.org/2000/svg" xmlns:xlink="http://www.w3.org/1999/xlink">

<g>

<path d="M111.8,60.9c0,2.3,0,4.5-0.1,6.7c0.2,0,0.4-0.1,0.5-0.1c1-0.3,1.7-1,2.2-1.8c0.3-0.5,0.4-1.1,0.4-1.7v-2v-3.6v-2.5   c0-0.4-0.1-0.8-0.2-1.2c-0.4-1.1-1.3-2-2.4-2.3c-0.4-0.1-0.7-0.2-1.1-0.2h-0.2C111.4,54.8,111.7,57.8,111.8,60.9z"/>

<path d="M7.8,66.8h2.4c-0.3-0.5-0.4-1.1-0.4-1.7v-2H7.8c-1,0-1.8-0.8-1.8-1.8c0-1,0.8-1.8,1.8-1.8h1.9V57c0-0.4,0.1-0.8,0.2-1.2   H7.8c-3.1,0-5.6,2.5-5.6,5.6C2.3,64.3,4.8,66.8,7.8,66.8z"/>

<path d="M9.8,59.5v3.6v2c0,0.6,0.2,1.2,0.4,1.7c0.6,1.2,1.9,2,3.3,2h0.4c0.3,0,0.6,0,0.9-0.1c-0.2-2.5-0.2-5.1-0.2-7.7   c0-2.6,0-5.2,0.3-7.7c-0.3-0.1-0.6-0.1-0.9-0.1h-0.4c-1.6,0-3,1.1-3.5,2.5c-0.1,0.4-0.2,0.8-0.2,1.2V59.5z"/>

<path d="M14.6,61c0,2.6,0,5.2,0.2,7.7c0.9,9.7,5,17.8,25.3,17.8h14.3c1,0,1.9-0.8,1.9-1.9v-5.9c0-3.2,2.6-5.8,5.8-5.8   c3.2,0,5.8,2.6,5.8,5.8v5.9c0,1,0.8,1.9,1.9,1.9h16.6c12.6,0,18.9-3.1,22.2-7.8v11.6c0,11-7.9,23.2-18.7,23.2l-2.4,0.1   c-8.7,0-16.2-9.1-18.3-18.1h11.6c1,0,1.9-0.8,1.9-1.9c0-1-0.8-1.9-1.9-1.9h-36c-1,0-1.9,0.8-1.9,1.9c0,1,0.8,1.9,1.9,1.9H56   c2.2,17.4,16.2,30.8,32.5,30.8c18.1,0,32.8-15.9,32.8-35.5V63.5c0.7-0.9,1.2-2.1,1.2-3.4c0-1.3-0.4-2.4-1.2-3.4V10.9   c0-1-0.8-1.9-1.9-1.9h-9c-0.5,0-1,0.2-1.4,0.6c-0.4,0.4-0.5,0.9-0.5,1.4l0,0.4c0,0.3,0,0.5,0,0.8v32.5c-3.2-5.7-9.4-9.3-22.2-9.3   H40.1c-20.1,0-24.3,8.2-25.3,17.9C14.6,55.8,14.6,58.4,14.6,61z M108.1,61c0,12.7,0,21.8-21.8,21.8H71.5v-4c0-5.3-4.3-9.5-9.5-9.5   c-5.3,0-9.5,4.3-9.5,9.5v4H40.1c-19.6,0-21.6-7.4-21.8-18.1c0-2.9,0-4.9,0-6.9c0.2-11,2-18.6,21.8-18.6h46.2   C105.6,39.2,107.4,47.5,108.1,61z M111.1,52.1c0.4,0,0.8,0.1,1.1,0.2V12.8h5.2v41.8c-0.2,0-0.4,0-0.6,0h-2.2   c0.1,0.4,0.2,0.8,0.2,1.2v2.5h1.9c1,0,1.8,0.8,1.8,1.8s-0.8,1.8-1.8,1.8h-1.9v2c0,0.6-0.2,1.2-0.4,1.7h2.4c0.2,0,0.4,0,0.6,0v25.2   c0,17.5-13,31.7-29,31.7c-14.2,0-26.4-11.6-28.6-26.7h5.5c2.3,10.6,11,21.5,22.2,21.5c0,0,0,0,0,0l2.4-0.1   c12.8,0,22.3-14.2,22.3-27V67.5c-0.2,0.1-0.3,0.1-0.5,0.1c0.1-2.2,0.1-4.5,0.1-6.7c-0.2-3.1-0.4-6.1-0.9-8.8H111.1z"/>

<path d="M91.4,51.4c0.5,0,4.9-0.3,5.5,5.6c0.1,1,0.9,1.7,1.9,1.7c0.1,0,0.1,0,0.2,0c1-0.1,1.8-1,1.7-2.1c-0.8-7.7-6.7-9.2-9.6-8.9   c-1,0.1-1.8,1-1.7,2C89.4,50.7,90.4,51.5,91.4,51.4z"/>

<path d="M20,61.1c0,10.1,0,20.6,22.8,20.6h7.4c1,0,1.8-0.8,1.9-1.8l0.2-5c0.9-4,4.7-6.5,10.1-6.5c4.5,0,9.2,3.3,9.6,6.7l0.2,4.8   c0,1,0.9,1.8,1.9,1.8h9.6c22.8,0,22.8-10.5,22.8-20.7c-0.7-11.6-2.8-20.5-22.8-20.5H42.8C20.2,40.5,20.1,51,20,61.1z M42.8,44.3   h40.8c17.2,0,18.4,6.5,19,16.9c0,9.8,0,16.9-19,16.9h-7.8l-0.1-3.2c-0.6-5.4-6.9-10.2-13.4-10.2c-7.2,0-12.6,3.8-13.8,9.7   c0,0.1,0,0.2,0,0.3L48.4,78h-5.5c-19,0-19-6.7-19-16.9C23.9,51,23.9,44.3,42.8,44.3z"/>

</g>

</svg>