<?xml version="1.0" encoding="iso-8859-1"?>
<svg fill="#000000"  version="1.1" id="Layer_1" xmlns="http://www.w3.org/2000/svg" xmlns:xlink="http://www.w3.org/1999/xlink" 
	 viewBox="0 0 512.002 512.002" xml:space="preserve">
<g>
	<g>
		<path d="M453.6,156.34c-6.928,0-13.837,1.252-20.319,3.653c-7.062-11.157-17.011-20.253-28.763-26.273
			c-2.33-72.42-61.969-130.614-134.945-130.614c-29.968,0-58.346,9.618-82.064,27.816c-21.731,16.671-38.102,39.923-46.459,65.855
			c-31.465,7.255-56.688,31.255-65.662,62.072c-5.469-1.667-11.155-2.508-16.989-2.508C26.198,156.34,0,182.538,0,214.739
			s26.198,58.399,58.4,58.399H207.84l-38.152,100.839c-0.871,2.303-0.556,4.886,0.843,6.91c1.399,2.025,3.703,3.234,6.165,3.234
			h79.821L204.374,498.29c-1.538,3.369-0.386,7.355,2.712,9.383c1.259,0.823,2.684,1.224,4.1,1.224c2.07,0,4.117-0.855,5.584-2.494
			l152.87-170.659c1.972-2.201,2.466-5.357,1.26-8.055c-1.206-2.698-3.885-4.436-6.841-4.436h-82.078l18.036-50.114h153.585
			c32.201,0,58.4-26.198,58.4-58.399S485.802,156.34,453.6,156.34z M264.271,328.207c-0.826,2.296-0.483,4.849,0.92,6.846
			s3.689,3.185,6.13,3.185h75.967l-108.83,121.494l36.533-79.988c1.06-2.32,0.866-5.018-0.512-7.164
			c-1.379-2.146-3.753-3.442-6.304-3.442H187.54l36.32-95.999h60.229L264.271,328.207z M453.6,258.153H58.4
			c-23.939,0-43.415-19.476-43.415-43.414c0-23.939,19.476-43.415,43.415-43.415c6.66,0,13.053,1.472,19.001,4.372
			c2.106,1.028,4.572,1.012,6.663-0.046c2.092-1.057,3.568-3.031,3.991-5.337c5.569-30.376,29.747-54.37,60.164-59.706
			c2.83-0.497,5.128-2.568,5.913-5.334c14.577-51.333,62.049-87.184,115.443-87.184c66.162,0,119.992,53.81,120.031,119.963
			c-0.005,0.129-0.009,0.259-0.01,0.39c-0.023,3.016,1.764,5.75,4.533,6.941c12.664,5.443,23.069,15.234,29.297,27.57
			c0.903,1.789,2.484,3.142,4.393,3.756c1.905,0.613,3.98,0.438,5.758-0.488c6.237-3.25,12.974-4.897,20.024-4.897
			c23.939,0,43.415,19.476,43.415,43.415C497.015,238.677,477.539,258.153,453.6,258.153z"/>
	</g>
</g>
<g>
	<g>
		<path d="M364.708,121.803c-12.878-45.347-54.812-77.018-101.977-77.018c-4.139,0-7.492,3.354-7.492,7.492s3.354,7.492,7.492,7.492
			c40.498,0,76.505,27.193,87.561,66.127c0.937,3.297,3.938,5.448,7.204,5.448c0.677,0,1.367-0.093,2.051-0.287
			C363.527,129.927,365.839,125.784,364.708,121.803z"/>
	</g>
</g>
</svg>